# xmcd
#
# Track frame offsets: 
#        150
#        14694
#        30566
#        46639
#        62376
#        76464
#        90428
#        108869
#        123354
#        138055
#        152102
#        170775
#        190796
#        209682
#        223264
#        241010
#        256630
#        274132
#        294264
#        310089
#
# Disc length: 4350 seconds
#
# Revision: 0
# Processed by: cddbd v1.5.1PL0 Copyright (c) Steve Scherf et al.
# Submitted via: ExactAudioCopy v0.95a4
#
DISCID=0a10fc14
DTITLE=Various Artist - Mega pop dance-dance hits dziewczyna 19
DYEAR=1900
DGENRE=dance
TTITLE0=Michael gray - the weekend
TTITLE1=blue lagoon - do you really want to hurt me
TTITLE2=global deejays - the sound of san francisco
TTITLE3=Liber and doniu and kombi - rendez-vous-remix
TTITLE4=Aventura - quando volveras
TTITLE5=Stone bridge feat. therese - take me away
TTITLE6=j-five - find away
TTITLE7=ex-dance - powrót donalda
TTITLE8=dj bobo - pirates of dance
TTITLE9=danzel - you are all of that
TTITLE10=vanilla ninja - blue tatoo
TTITLE11=liber - gdzie indziej
TTITLE12=o-zone - de ce plang arele
TTITLE13=angelcity feat. lara mcallen - do you know(i go crazy)
TTITLE14=zandra - I am your woman
TTITLE15=dj casparfeat. tha gap band - oops upside your head
TTITLE16=Karma - every time you leave
TTITLE17=top one - jej czarne oczy
TTITLE18=magic box - sorry marin
TTITLE19=Boom boxx feat. linda o. - Balla da li
EXTD=
EXTT0=
EXTT1=
EXTT2=
EXTT3=
EXTT4=
EXTT5=
EXTT6=
EXTT7=
EXTT8=
EXTT9=
EXTT10=
EXTT11=
EXTT12=
EXTT13=
EXTT14=
EXTT15=
EXTT16=
EXTT17=
EXTT18=
EXTT19=
PLAYORDER=
